<mxfile host="app.diagrams.net" modified="2023-12-13T08:50:56.548Z" agent="Mozilla/5.0 (Macintosh; Intel Mac OS X 10_15_7) AppleWebKit/537.36 (KHTML, like Gecko) Chrome/122.0.0.0 Safari/537.36" version="22.1.8" etag="wJTmrl0B0Vu_hR2yH1Vb" type="github">
  <diagram name="Страница — 1" id="MJDFWsLIwjou_dcJEvBn">
    <mxGraphModel>
      <root>
        <mxCell id="0" />
        <mxCell id="1" parent="0" />
      </root>
    </mxGraphModel>
  </diagram>
</mxfile>
